<?xml version="1.0" encoding="UTF-8" standalone="no"?>
<svg
   xmlns:dc="http://purl.org/dc/elements/1.1/"
   xmlns:cc="http://creativecommons.org/ns#"
   xmlns:rdf="http://www.w3.org/1999/02/22-rdf-syntax-ns#"
   xmlns:svg="http://www.w3.org/2000/svg"
   xmlns="http://www.w3.org/2000/svg"
   id="svg16"
   version="1.1"
   height="1024"
   width="1024">
  <metadata
     id="metadata22">
    <rdf:RDF>
      <cc:Work
         rdf:about="">
        <dc:format>image/svg+xml</dc:format>
        <dc:type
           rdf:resource="http://purl.org/dc/dcmitype/StillImage" />
      </cc:Work>
    </rdf:RDF>
  </metadata>
  <defs
     id="defs20" />
  <style
     id="style2"><![CDATA[  #icon * { fill: #807e71 !important; } ]]></style>
  <g
     id="g7">
    <title
       id="title4">background</title>
    <rect
       x="-1"
       y="-1"
       width="582"
       height="402"
       id="canvas_background"
       fill="none" />
  </g>
  <g
     id="g14">
    <title
       id="title9">Layer 1</title>
    <rect
       id="rect4"
       height="1024"
       width="1024"
       y="0"
       x="0"
       fill="#e79d63" />
    <g
       id="icon">
      <path
         id="path6"
         d="m535.6,617.2c-6,-2.4 -11.6,-2 -16.4,0.4c-2.8,1.2 -5.2,3.2 -7.2,5.2c-4.8,-6 -14,-9.2 -22,-6.4c-10,3.6 -17.6,17.2 -26.8,20.8c16,10.8 28,25.6 55.6,22.8c19.2,-2 28,-14.8 41.6,-22.4c-2,-1.2 -4,-2.8 -6,-4.8c-6,-4.8 -12.4,-12.8 -18.8,-15.6zm-23.6,-322.4c-144.8,0 -262.4,158.8 -262.4,303.6c0,71.6 128.8,130.4 258.8,131.2c132.4,0.8 265.6,-58 265.6,-131.2c0.4,-144.8 -117.2,-303.6 -262,-303.6zm0,423.6c-88.8,0 -161.2,-97.6 -161.2,-186.4c0,-44.8 82,-80.8 163.2,-80.4c80,0.4 159.2,36.4 159.2,80.4c0,88.8 -72.4,186.4 -161.2,186.4z" />
    </g>
  </g>
</svg>
