<?xml version="1.0" encoding="UTF-8" standalone="no"?>
<svg
   xmlns:dc="http://purl.org/dc/elements/1.1/"
   xmlns:cc="http://creativecommons.org/ns#"
   xmlns:rdf="http://www.w3.org/1999/02/22-rdf-syntax-ns#"
   xmlns:svg="http://www.w3.org/2000/svg"
   xmlns="http://www.w3.org/2000/svg"
   id="svg46"
   version="1.1"
   height="1024"
   width="1024">
  <metadata
     id="metadata52">
    <rdf:RDF>
      <cc:Work
         rdf:about="">
        <dc:format>image/svg+xml</dc:format>
        <dc:type
           rdf:resource="http://purl.org/dc/dcmitype/StillImage" />
      </cc:Work>
    </rdf:RDF>
  </metadata>
  <defs
     id="defs50" />
  <g
     id="g5">
    <title
       id="title2">background</title>
    <rect
       x="-1"
       y="-1"
       width="582"
       height="402"
       id="canvas_background"
       fill="none" />
  </g>
  <g
     id="g44">
    <title
       id="title7">Layer 1</title>
    <path
       id="path2"
       fill="#e79d63"
       d="m478.3,46.8l74.1,0c4.7,1.2 9.3,3.1 14,3.6c75,7.8 144.5,31.6 206.6,74.5c106.2,73.3 169.6,172.4 175.5,303.7c4.5,101.5 -29.6,191.7 -86.7,273.7c-84.7,121.7 -199.1,209.4 -326.5,281.9c-5.7,3.2 -10.8,7.4 -16.2,11.1l-3.7,0l0,-158.5c-7.7,-0.4 -12.6,-0.8 -17.5,-1c-86.6,-2.9 -166.3,-27.6 -238.6,-75.3c-148.5,-98 -214,-272.1 -159.2,-431.8c49.1,-143 154.4,-226.4 296.9,-266.1c26.6,-7.4 54.2,-10.7 81.3,-15.8z" />
    <g
       id="logo-group">
      <g
         id="title">
        <path
           id="path13"
           d="m293,392.9l-4.5,0l0,30.7c-2,-3.5 -4.6,-6.3 -7.9,-8.3s-7.1,-3 -11.2,-3c-4.4,0 -8.4,1.1 -11.9,3.1c-3.6,2 -6.4,4.9 -8.4,8.5s-3,7.7 -3,12.3c0,4.7 1,8.7 3,12.3s4.8,6.5 8.4,8.5c3.5,2.1 7.5,3.1 11.9,3.1c4.2,0 8,-1 11.4,-3c3.3,-2 5.9,-4.8 7.8,-8.5l0,11.1l4.4,0l0,-66.8zm-13.8,60.6c-2.9,1.7 -6,2.5 -9.6,2.5s-6.8,-0.8 -9.7,-2.5c-2.9,-1.6 -5.1,-4 -6.8,-7c-1.6,-3 -2.4,-6.4 -2.4,-10.3c0,-3.8 0.8,-7.2 2.4,-10.3c1.6,-3 3.9,-5.3 6.8,-7c2.9,-1.6 6.1,-2.5 9.7,-2.5s6.8,0.9 9.6,2.5c2.9,1.7 5.1,4 6.8,7c1.6,3.1 2.5,6.5 2.5,10.3c0,3.9 -0.9,7.3 -2.5,10.3c-1.7,3 -3.9,5.4 -6.8,7z"
           fill="#EAE7D4" />
        <path
           id="path15"
           d="m358.5,454.4c-2.6,1.1 -5.5,1.6 -8.5,1.6c-4.9,0 -8.9,-1.3 -12.3,-3.8s-5.8,-5.9 -6.8,-10.3l39.7,-7.7c-0.3,-4.1 -1.3,-7.8 -3.2,-11.2c-2,-3.3 -4.6,-5.9 -7.8,-7.8s-6.9,-2.9 -11,-2.9c-4.4,0 -8.4,1.1 -11.8,3.1c-3.5,2.1 -6.2,4.9 -8.2,8.5s-2.9,7.7 -2.9,12.3c0,4.7 1,8.7 3.1,12.3s4.9,6.5 8.6,8.5c3.7,2.1 7.8,3.1 12.6,3.1c3.6,0 6.9,-0.6 10.1,-1.9c3,-1.3 5.6,-3.1 7.6,-5.8l-2.6,-3c-1.8,2.3 -4,3.9 -6.6,5zm-19.5,-35.6c2.8,-1.6 5.9,-2.5 9.5,-2.5c3.1,0 5.9,0.7 8.5,2.1c2.5,1.4 4.5,3.2 6.1,5.5c1.5,2.3 2.5,5 3,7.7l-35.8,7c-0.2,-1.2 -0.2,-2.1 -0.2,-2.8c0,-3.7 0.7,-7.1 2.3,-10.1c1.5,-2.9 3.7,-5.3 6.6,-6.9z"
           fill="#EAE7D4" />
        <path
           id="path17"
           d="m440.2,412.7l-4.6,0l-18.9,42l-18.7,-42l-4.8,0l21.2,47l4.6,0l21.2,-47z"
           fill="#B1AF9E" />
        <path
           id="path19"
           d="m495,454.4c-2.6,1.1 -5.5,1.6 -8.5,1.6c-4.9,0 -8.9,-1.3 -12.3,-3.8s-5.8,-5.9 -6.8,-10.3l39.7,-7.7c-0.3,-4.1 -1.3,-7.8 -3.2,-11.2c-2,-3.3 -4.6,-5.9 -7.8,-7.8s-6.9,-2.9 -11,-2.9c-4.4,0 -8.4,1.1 -11.8,3.1c-3.5,2.1 -6.2,4.9 -8.2,8.5s-2.9,7.7 -2.9,12.3c0,4.7 1,8.7 3.1,12.3s5,6.5 8.6,8.5c3.7,2.1 7.8,3.1 12.6,3.1c3.6,0 6.9,-0.6 10.1,-1.9c3,-1.3 5.6,-3.1 7.6,-5.8l-2.6,-3c-1.9,2.3 -4,3.9 -6.6,5zm-19.6,-35.6c2.8,-1.6 5.9,-2.5 9.5,-2.5c3.1,0 5.9,0.7 8.5,2.1s4.5,3.2 6.1,5.5c1.5,2.3 2.5,5 3,7.7l-35.8,7c-0.2,-1.2 -0.2,-2.1 -0.2,-2.8c0,-3.7 0.7,-7.1 2.3,-10.1c1.6,-2.9 3.8,-5.3 6.6,-6.9z"
           fill="#B1AF9E" />
        <path
           id="path21"
           d="m539.8,392.9l0,66.8l4.5,0l0,-66.8l-4.5,0z"
           fill="#807E71" />
        <path
           id="path25"
           d="m692,415.4c-3.6,-2 -7.6,-3.1 -11.9,-3.1c-4.2,0 -8,1.1 -11.4,3.1s-6,4.8 -7.8,8.4l0,-11.1l-4.3,0l0,64.4l4.5,0l0,-28.1c1.8,3.5 4.4,6.2 7.8,8.2c3.3,2 7.1,2.9 11.2,2.9c4.3,0 8.3,-1 11.9,-3c3.5,-2 6.3,-4.9 8.3,-8.5s3.1,-7.7 3.1,-12.4c0,-4.6 -1.1,-8.7 -3.1,-12.3s-4.8,-6.4 -8.3,-8.5zm-2.4,38.1c-2.9,1.7 -6.1,2.5 -9.7,2.5s-6.8,-0.8 -9.7,-2.5c-2.9,-1.6 -5.1,-4 -6.8,-7c-1.6,-3 -2.4,-6.4 -2.4,-10.3c0,-3.8 0.8,-7.2 2.4,-10.3c1.6,-3 3.9,-5.3 6.8,-7c2.9,-1.6 6.1,-2.5 9.7,-2.5s6.8,0.9 9.7,2.5c2.9,1.7 5.1,4 6.8,7c1.6,3.1 2.5,6.5 2.5,10.3c0,3.9 -0.9,7.3 -2.5,10.3c-1.7,3 -3.9,5.4 -6.8,7z"
           fill="#47463B" />
        <path
           id="path27"
           d="m777.9,392.9l-4.5,0l0,30.7c-2,-3.5 -4.6,-6.3 -7.9,-8.3s-7.1,-3 -11.2,-3c-4.4,0 -8.4,1.1 -11.9,3.1c-3.6,2 -6.4,4.9 -8.4,8.5s-3,7.7 -3,12.3c0,4.7 1,8.7 3,12.3s4.8,6.5 8.4,8.5c3.5,2.1 7.5,3.1 11.9,3.1c4.2,0 8,-1 11.4,-3c3.3,-2 5.9,-4.8 7.8,-8.5l0,11.1l4.4,0l0,-66.8zm-13.8,60.6c-2.9,1.7 -6,2.5 -9.6,2.5s-6.8,-0.8 -9.7,-2.5c-2.9,-1.6 -5.1,-4 -6.8,-7c-1.6,-3 -2.4,-6.4 -2.4,-10.3c0,-3.8 0.8,-7.2 2.4,-10.3c1.6,-3 3.9,-5.3 6.8,-7c2.9,-1.6 6.1,-2.5 9.7,-2.5s6.8,0.9 9.6,2.5c2.9,1.7 5.1,4 6.8,7c1.6,3.1 2.5,6.5 2.5,10.3c0,3.9 -0.9,7.3 -2.5,10.3s-3.9,5.4 -6.8,7z"
           fill="#47463B" />
        <path
           id="path14"
           fill="#807E71"
           d="m603.4,448.8c-0.7,-0.3 -1.5,-0.2 -2.1,0.1c-0.4,0.2 -0.7,0.4 -0.9,0.7c-0.6,-0.8 -1.8,-1.2 -2.8,-0.8c-1.3,0.5 -2.2,2.2 -3.4,2.7c2,1.4 3.6,3.2 7,2.9c2.4,-0.2 3.5,-1.9 5.3,-2.8c-0.2,-0.1 -0.5,-0.4 -0.8,-0.6c-0.6,-0.9 -1.5,-1.9 -2.3,-2.2zm-3,-40.9c-18.3,0 -33.2,20.1 -33.2,38.5c0,9.1 16.3,16.5 32.8,16.6c16.8,0.1 33.7,-7.4 33.7,-16.6c0,-18.4 -14.9,-38.5 -33.3,-38.5zm0,53.7c-11.3,0 -20.4,-12.4 -20.4,-23.6c0,-5.7 10.4,-10.3 20.7,-10.2c10.1,0 20.1,4.6 20.1,10.2c0.1,11.2 -9.1,23.6 -20.4,23.6z" />
      </g>
      <g
         id="tagline"
         fill="#EAE7D4">
        <path
           id="path30"
           d="m236.8,526.3l0,-28.1l11.7,0c1.2,0 2.4,0.3 3.4,0.8c1.1,0.5 2,1.2 2.7,2.1c0.8,0.8 1.4,1.8 1.8,2.9s0.6,2.1 0.6,3.2c0,1.2 -0.2,2.3 -0.6,3.4s-1,2 -1.7,2.9c-0.7,0.8 -1.6,1.5 -2.6,2s-2.1,0.8 -3.4,0.8l-8.4,0l0,10.1l-3.5,0l0,-0.1zm3.6,-13.3l8.2,0c0.7,0 1.4,-0.1 2,-0.4s1.1,-0.7 1.5,-1.3s0.8,-1.2 1,-1.9s0.4,-1.5 0.4,-2.3s-0.1,-1.6 -0.4,-2.3s-0.6,-1.3 -1.1,-1.9c-0.4,-0.5 -1,-0.9 -1.6,-1.2s-1.3,-0.4 -1.9,-0.4l-8,0l-0.1,11.7z" />
        <path
           id="path32"
           d="m274.4,508.6c-1.7,0.1 -3.3,0.5 -4.6,1.3s-2.3,2 -2.8,3.5l0,12.8l-3.5,0l0,-20.7l3.2,0l0,4.8c0.7,-1.4 1.7,-2.6 2.8,-3.4c1.2,-0.9 2.4,-1.4 3.7,-1.5l0.7,0l0.5,0l0,3.2z" />
        <path
           id="path34"
           d="m288.9,526.7c-1.6,0 -3,-0.3 -4.3,-0.9s-2.4,-1.4 -3.3,-2.3c-0.9,-1 -1.6,-2.1 -2.1,-3.4s-0.8,-2.7 -0.8,-4.1c0,-1.5 0.3,-2.8 0.8,-4.1s1.2,-2.4 2.1,-3.4s2,-1.8 3.3,-2.3c1.3,-0.6 2.7,-0.9 4.2,-0.9s2.9,0.3 4.2,0.9s2.4,1.4 3.3,2.3c0.9,1 1.6,2.1 2.1,3.4s0.8,2.7 0.8,4.1s-0.3,2.8 -0.8,4.1s-1.2,2.4 -2.1,3.4s-2,1.8 -3.3,2.3c-1.2,0.6 -2.6,0.9 -4.1,0.9zm-6.9,-10.7c0,1.1 0.2,2.1 0.5,3c0.4,0.9 0.9,1.7 1.5,2.4s1.4,1.2 2.2,1.6s1.7,0.6 2.7,0.6s1.8,-0.2 2.7,-0.6c0.8,-0.4 1.6,-0.9 2.2,-1.6s1.1,-1.5 1.5,-2.5s0.6,-2 0.6,-3.1s-0.2,-2 -0.6,-3c-0.3,-1 -0.8,-1.8 -1.5,-2.5c-0.6,-0.7 -1.4,-1.3 -2.2,-1.7s-1.7,-0.6 -2.7,-0.6s-1.8,0.2 -2.7,0.6c-0.8,0.4 -1.5,1 -2.2,1.7c-0.6,0.7 -1.1,1.5 -1.5,2.5c-0.3,1.1 -0.5,2.1 -0.5,3.2z" />
        <path
           id="path36"
           d="m314.3,526.5c-1.4,0 -2.7,-0.3 -3.9,-0.9s-2.2,-1.4 -3,-2.3c-0.8,-1 -1.5,-2.1 -2,-3.4c-0.4,-1.3 -0.7,-2.6 -0.7,-4c0,-1.5 0.2,-2.8 0.7,-4.1s1.1,-2.5 2,-3.4c0.8,-1 1.8,-1.7 3,-2.3s2.5,-0.9 3.9,-0.9c1.7,0 3.2,0.4 4.5,1.3s2.3,1.9 3.2,3.2l0,-4.1l3.1,0l0,20.4c0,1.5 -0.3,2.8 -0.8,3.9c-0.6,1.1 -1.3,2.1 -2.3,2.9s-2.1,1.3 -3.4,1.7s-2.6,0.6 -4.1,0.6c-2.4,0 -4.3,-0.4 -5.7,-1.2c-1.5,-0.8 -2.7,-1.9 -3.6,-3.3l2,-1.8c0.8,1.2 1.9,2.1 3.2,2.7s2.7,0.9 4.2,0.9c1,0 1.8,-0.1 2.7,-0.4s1.6,-0.7 2.3,-1.2c0.6,-0.5 1.1,-1.2 1.5,-2s0.6,-1.7 0.6,-2.8l0,-3.6c-0.4,0.6 -0.9,1.2 -1.4,1.7s-1.1,0.9 -1.7,1.3c-0.6,0.3 -1.3,0.6 -2,0.8c-0.8,0.2 -1.5,0.3 -2.3,0.3zm1.1,-2.9c0.7,0 1.5,-0.1 2.1,-0.4c0.7,-0.3 1.3,-0.6 1.9,-1s1.1,-1 1.5,-1.5c0.4,-0.6 0.7,-1.1 0.8,-1.7l0,-5.9c-0.3,-0.7 -0.7,-1.4 -1.1,-1.9c-0.4,-0.6 -1,-1.1 -1.5,-1.5c-0.6,-0.4 -1.2,-0.8 -1.9,-1s-1.3,-0.4 -2,-0.4c-1.1,0 -2,0.2 -2.9,0.7c-0.8,0.4 -1.5,1 -2.1,1.8c-0.6,0.7 -1,1.6 -1.3,2.5s-0.5,1.9 -0.5,2.8c0,1 0.2,2 0.6,2.9s0.9,1.7 1.5,2.4s1.4,1.2 2.2,1.7c0.7,0.3 1.7,0.5 2.7,0.5z" />
        <path
           id="path38"
           d="m344.2,508.6c-1.7,0.1 -3.3,0.5 -4.6,1.3s-2.3,2 -2.8,3.5l0,12.8l-3.5,0l0,-20.7l3.2,0l0,4.8c0.7,-1.4 1.7,-2.6 2.8,-3.4c1.2,-0.9 2.4,-1.4 3.7,-1.5l0.7,0l0.5,0l0,3.2z" />
        <path
           id="path40"
           d="m355.4,526.7c-1,0 -1.9,-0.2 -2.7,-0.5s-1.6,-0.8 -2.2,-1.4s-1.1,-1.3 -1.5,-2c-0.3,-0.8 -0.5,-1.7 -0.5,-2.6c0,-1 0.2,-1.8 0.6,-2.6s1,-1.5 1.8,-2c0.8,-0.6 1.7,-1 2.8,-1.3s2.3,-0.5 3.5,-0.5c1,0 2,0.1 3.1,0.3c1,0.2 1.9,0.4 2.7,0.8l0,-1.7c0,-1.7 -0.5,-3 -1.4,-4c-1,-1 -2.3,-1.5 -4,-1.5c-2.1,0 -4.3,0.8 -6.6,2.4l-1.1,-2.3c2.7,-1.8 5.3,-2.7 8,-2.7s4.8,0.7 6.3,2.2s2.3,3.5 2.3,6.1l0,8.4c0,0.8 0.4,1.2 1.1,1.3l0,3c-0.4,0.1 -0.7,0.1 -0.9,0.1s-0.5,0 -0.8,0c-0.7,0 -1.2,-0.2 -1.7,-0.6c-0.4,-0.4 -0.6,-0.9 -0.7,-1.5l-0.1,-1.5c-0.9,1.2 -2.1,2.2 -3.5,2.9c-1.4,0.8 -2.9,1.2 -4.5,1.2zm0.9,-2.7c1.2,0 2.4,-0.2 3.4,-0.7c1.1,-0.5 1.9,-1.1 2.5,-1.9c0.5,-0.5 0.8,-1 0.8,-1.5l0,-3.1c-1.7,-0.7 -3.4,-1 -5.3,-1c-1.7,0 -3.2,0.4 -4.3,1.1s-1.6,1.7 -1.6,2.9c0,0.6 0.1,1.1 0.3,1.6s0.6,0.9 1,1.3s0.9,0.7 1.5,0.9c0.5,0.3 1.1,0.4 1.7,0.4z" />
        <path
           id="path42"
           d="m405.7,526.3l-3.5,0l0,-11.6c0,-2.2 -0.4,-3.8 -1.1,-4.8s-1.7,-1.5 -3.1,-1.5s-2.7,0.5 -3.8,1.5s-1.9,2.3 -2.4,3.9l0,12.4l-3.5,0l0,-11.6c0,-2.2 -0.3,-3.8 -1,-4.8s-1.7,-1.5 -3.1,-1.5s-2.7,0.5 -3.8,1.5s-1.9,2.3 -2.4,3.9l0,12.5l-3.5,0l0,-20.7l3.2,0l0,4.4c0.8,-1.5 1.9,-2.7 3.3,-3.5c1.3,-0.8 2.9,-1.3 4.6,-1.3s3.1,0.5 4.1,1.4s1.7,2.1 1.9,3.6c1.8,-3.4 4.5,-5 7.9,-5c1.2,0 2.2,0.2 3,0.7c0.8,0.4 1.5,1 1.9,1.8c0.5,0.8 0.8,1.7 1,2.7s0.3,2.2 0.3,3.4l0,12.6z" />
        <path
           id="path44"
           d="m444.8,526.3l-3.5,0l0,-11.6c0,-2.2 -0.4,-3.8 -1.1,-4.8s-1.7,-1.5 -3.1,-1.5s-2.7,0.5 -3.8,1.5s-1.9,2.3 -2.4,3.9l0,12.4l-3.5,0l0,-11.6c0,-2.2 -0.3,-3.8 -1,-4.8s-1.7,-1.5 -3.1,-1.5s-2.7,0.5 -3.8,1.5s-1.9,2.3 -2.4,3.9l0,12.5l-3.5,0l0,-20.7l3.2,0l0,4.4c0.8,-1.5 1.9,-2.7 3.3,-3.5c1.3,-0.8 2.9,-1.3 4.6,-1.3s3.1,0.5 4.1,1.4s1.7,2.1 1.9,3.6c1.8,-3.4 4.5,-5 7.9,-5c1.2,0 2.2,0.2 3,0.7c0.8,0.4 1.5,1 1.9,1.8c0.5,0.8 0.8,1.7 1,2.7c0.2,1.1 0.3,2.2 0.3,3.4l0,12.6z" />
        <path
           id="path46"
           d="m461.9,526.7c-1.6,0 -3,-0.3 -4.3,-0.8c-1.3,-0.6 -2.4,-1.4 -3.3,-2.3c-0.9,-1 -1.7,-2.1 -2.2,-3.4s-0.8,-2.7 -0.8,-4.2s0.3,-2.8 0.8,-4.1s1.3,-2.4 2.2,-3.4c1,-1 2.1,-1.7 3.4,-2.3s2.7,-0.9 4.3,-0.9s3,0.3 4.2,0.9c1.3,0.6 2.4,1.4 3.3,2.3c0.9,1 1.6,2.1 2.1,3.4s0.8,2.6 0.8,4l0,0.8l0,0.6l-17.4,0c0.1,1 0.3,2 0.7,2.8s0.9,1.6 1.5,2.2s1.3,1.1 2.1,1.4s1.7,0.5 2.6,0.5c0.6,0 1.3,-0.1 1.9,-0.2c0.6,-0.2 1.2,-0.4 1.7,-0.7s1,-0.6 1.4,-1.1c0.4,-0.4 0.7,-0.9 1,-1.4l3,0.8c-0.3,0.8 -0.8,1.5 -1.4,2.1s-1.3,1.2 -2.1,1.7c-0.8,0.4 -1.6,0.8 -2.6,1.1c-0.9,0 -1.9,0.2 -2.9,0.2zm7.1,-12.2c-0.1,-1 -0.3,-1.9 -0.8,-2.7c-0.4,-0.8 -0.9,-1.6 -1.5,-2.1c-0.6,-0.6 -1.3,-1 -2.1,-1.3s-1.7,-0.5 -2.6,-0.5s-1.8,0.2 -2.6,0.5s-1.5,0.8 -2.2,1.4c-0.6,0.6 -1.1,1.3 -1.5,2.1s-0.6,1.7 -0.7,2.7l14,0l0,-0.1z" />
        <path
           id="path48"
           d="m487.1,526.7c-1.4,0 -2.7,-0.3 -4,-0.9c-1.2,-0.6 -2.3,-1.4 -3.1,-2.3c-0.9,-1 -1.6,-2.1 -2.1,-3.4s-0.7,-2.7 -0.7,-4.1c0,-1.5 0.2,-2.8 0.7,-4.1s1.1,-2.5 1.9,-3.4c0.8,-1 1.8,-1.7 3,-2.3s2.4,-0.9 3.8,-0.9c1.7,0 3.1,0.4 4.4,1.3s2.4,1.9 3.1,3.2l0,-12.4l3.5,0l0,24.6c0,0.8 0.4,1.2 1.1,1.3l0,3c-0.4,0.1 -0.7,0.1 -0.9,0.1l-0.6,0c-0.7,0 -1.3,-0.2 -1.8,-0.7s-0.8,-1 -0.8,-1.6l0,-1.7c-0.8,1.3 -1.9,2.4 -3.3,3.2c-1.2,0.7 -2.6,1.1 -4.2,1.1zm0.9,-3.1c0.6,0 1.3,-0.1 1.9,-0.4c0.7,-0.2 1.3,-0.6 1.9,-1s1.1,-0.9 1.5,-1.5s0.7,-1.2 0.9,-1.8l0,-5.9c-0.2,-0.7 -0.6,-1.3 -1.1,-1.9s-1,-1.1 -1.6,-1.5s-1.2,-0.8 -1.9,-1c-0.7,-0.3 -1.3,-0.4 -2,-0.4c-1,0 -2,0.2 -2.8,0.7c-0.8,0.4 -1.5,1 -2.1,1.7s-1,1.5 -1.3,2.5c-0.3,0.9 -0.5,1.9 -0.5,2.9s0.2,2 0.6,3c0.4,0.9 0.9,1.7 1.5,2.4s1.4,1.2 2.2,1.7c0.8,0.3 1.8,0.5 2.8,0.5z" />
        <path
           id="path50"
           d="m526.8,525.2c-0.2,0.1 -0.5,0.2 -0.8,0.4c-0.3,0.1 -0.7,0.3 -1.2,0.4c-0.4,0.1 -0.9,0.2 -1.4,0.3s-1,0.2 -1.6,0.2c-1.3,0 -2.4,-0.3 -3.3,-1s-1.4,-1.8 -1.4,-3.3l0,-13.9l-2.8,0l0,-2.7l2.8,0l0,-6.9l3.5,0l0,6.9l4.6,0l0,2.7l-4.6,0l0,12.8c0.1,0.8 0.3,1.3 0.8,1.7s1,0.5 1.6,0.5c0.7,0 1.3,-0.1 1.9,-0.3s1,-0.4 1.2,-0.6l0.7,2.8z" />
        <path
           id="path52"
           d="m541.2,526.7c-1.6,0 -3,-0.3 -4.3,-0.9s-2.4,-1.4 -3.3,-2.3c-0.9,-1 -1.6,-2.1 -2.1,-3.4s-0.8,-2.7 -0.8,-4.1c0,-1.5 0.3,-2.8 0.8,-4.1s1.2,-2.4 2.1,-3.4s2,-1.8 3.3,-2.3c1.3,-0.6 2.7,-0.9 4.2,-0.9s2.9,0.3 4.2,0.9s2.4,1.4 3.3,2.3c0.9,1 1.6,2.1 2.1,3.4s0.8,2.7 0.8,4.1s-0.3,2.8 -0.8,4.1s-1.2,2.4 -2.1,3.4s-2,1.8 -3.3,2.3c-1.1,0.6 -2.5,0.9 -4.1,0.9zm-6.8,-10.7c0,1.1 0.2,2.1 0.5,3c0.4,0.9 0.9,1.7 1.5,2.4s1.4,1.2 2.2,1.6s1.7,0.6 2.7,0.6s1.8,-0.2 2.7,-0.6c0.8,-0.4 1.6,-0.9 2.2,-1.6s1.1,-1.5 1.5,-2.5s0.6,-2 0.6,-3.1s-0.2,-2 -0.6,-3c-0.3,-1 -0.8,-1.8 -1.5,-2.5c-0.6,-0.7 -1.4,-1.3 -2.2,-1.7s-1.7,-0.6 -2.7,-0.6s-1.8,0.2 -2.7,0.6c-0.8,0.4 -1.5,1 -2.2,1.7c-0.6,0.7 -1.1,1.5 -1.5,2.5c-0.4,1.1 -0.5,2.1 -0.5,3.2z" />
        <path
           id="path54"
           d="m579.6,526.7c-1.7,0 -3.2,-0.4 -4.6,-1.3c-1.3,-0.8 -2.3,-1.9 -3.1,-3.2l0,12.5l-3.5,0l0,-29.1l3.1,0l0,3.9c0.8,-1.3 1.9,-2.3 3.2,-3.1s2.8,-1.2 4.4,-1.2c1.4,0 2.7,0.3 3.9,0.9s2.2,1.4 3.1,2.4s1.5,2.1 2,3.4s0.8,2.6 0.8,4c0,1.5 -0.2,2.9 -0.7,4.2c-0.4,1.3 -1.1,2.4 -1.9,3.4s-1.8,1.7 -2.9,2.3c-1.2,0.6 -2.4,0.9 -3.8,0.9zm-1.1,-3.1c1,0 2,-0.2 2.8,-0.6s1.6,-1 2.1,-1.7c0.6,-0.7 1.1,-1.6 1.4,-2.5s0.5,-1.9 0.5,-2.9s-0.2,-2 -0.6,-2.9c-0.4,-1 -0.9,-1.8 -1.5,-2.5s-1.4,-1.3 -2.3,-1.7c-0.8,-0.4 -1.8,-0.6 -2.8,-0.6c-0.6,0 -1.3,0.1 -2,0.4c-0.7,0.2 -1.3,0.6 -1.9,1s-1.1,0.9 -1.5,1.5s-0.7,1.1 -0.8,1.8l0,5.9c0.3,0.7 0.7,1.3 1.1,1.9s1,1.1 1.5,1.5c0.6,0.4 1.2,0.8 1.9,1c0.7,0.3 1.4,0.4 2.1,0.4z" />
        <path
           id="path56"
           d="m604.8,526.7c-1.6,0 -3,-0.3 -4.3,-0.8c-1.3,-0.6 -2.4,-1.4 -3.3,-2.3c-0.9,-1 -1.7,-2.1 -2.2,-3.4s-0.8,-2.7 -0.8,-4.2s0.3,-2.8 0.8,-4.1s1.3,-2.4 2.2,-3.4c1,-1 2.1,-1.7 3.4,-2.3s2.7,-0.9 4.3,-0.9s3,0.3 4.2,0.9c1.3,0.6 2.4,1.4 3.3,2.3c0.9,1 1.6,2.1 2.1,3.4s0.8,2.6 0.8,4l0,0.8l0,0.6l-17.2,0c0.1,1 0.3,2 0.7,2.8s0.9,1.6 1.5,2.2s1.3,1.1 2.1,1.4s1.7,0.5 2.6,0.5c0.6,0 1.3,-0.1 1.9,-0.2c0.6,-0.2 1.2,-0.4 1.7,-0.7s1,-0.6 1.4,-1.1c0.4,-0.4 0.7,-0.9 1,-1.4l3,0.8c-0.3,0.8 -0.8,1.5 -1.4,2.1s-1.3,1.2 -2.1,1.7c-0.8,0.4 -1.6,0.8 -2.6,1.1c-1.1,0 -2.1,0.2 -3.1,0.2zm7.1,-12.2c-0.1,-1 -0.3,-1.9 -0.8,-2.7c-0.4,-0.8 -0.9,-1.6 -1.5,-2.1c-0.6,-0.6 -1.3,-1 -2.1,-1.3s-1.7,-0.5 -2.6,-0.5s-1.8,0.2 -2.6,0.5s-1.5,0.8 -2.2,1.4c-0.6,0.6 -1.1,1.3 -1.5,2.1s-0.6,1.7 -0.7,2.7l14,0l0,-0.1z" />
        <path
           id="path58"
           d="m632.5,508.6c-1.7,0.1 -3.3,0.5 -4.6,1.3s-2.3,2 -2.8,3.5l0,12.8l-3.5,0l0,-20.7l3.2,0l0,4.8c0.7,-1.4 1.7,-2.6 2.8,-3.4c1.2,-0.9 2.4,-1.4 3.7,-1.5l0.7,0l0.5,0l0,3.2z" />
        <path
           id="path60"
           d="m639.5,526.3l0,-17.9l-2.8,0l0,-2.7l2.8,0l0,-0.4c0,-2.6 0.6,-4.6 1.7,-6c1.1,-1.5 2.7,-2.2 4.6,-2.2c0.8,0 1.6,0.1 2.4,0.4c0.8,0.2 1.5,0.5 2.1,0.9l-0.9,2.6c-0.4,-0.3 -0.8,-0.5 -1.4,-0.6c-0.5,-0.2 -1.1,-0.2 -1.6,-0.2c-1.2,0 -2,0.4 -2.7,1.3c-0.6,0.9 -0.9,2.1 -0.9,3.8l0,0.6l5.5,0l0,2.7l-5.3,0l0,17.9l-3.5,0l0,-0.2z" />
        <path
           id="path62"
           d="m663.2,526.7c-1.6,0 -3,-0.3 -4.3,-0.8c-1.3,-0.6 -2.4,-1.4 -3.3,-2.3c-0.9,-1 -1.7,-2.1 -2.2,-3.4s-0.8,-2.7 -0.8,-4.2s0.3,-2.8 0.8,-4.1s1.3,-2.4 2.2,-3.4c1,-1 2.1,-1.7 3.4,-2.3s2.7,-0.9 4.3,-0.9s3,0.3 4.2,0.9c1.3,0.6 2.4,1.4 3.3,2.3c0.9,1 1.6,2.1 2.1,3.4s0.8,2.6 0.8,4l0,0.8l0,0.6l-17.2,0c0.1,1 0.3,2 0.7,2.8s0.9,1.6 1.5,2.2s1.3,1.1 2.1,1.4s1.7,0.5 2.6,0.5c0.6,0 1.3,-0.1 1.9,-0.2c0.6,-0.2 1.2,-0.4 1.7,-0.7s1,-0.6 1.4,-1.1c0.4,-0.4 0.7,-0.9 1,-1.4l3,0.8c-0.3,0.8 -0.8,1.5 -1.4,2.1s-1.3,1.2 -2.1,1.7c-0.8,0.4 -1.6,0.8 -2.6,1.1c-1.1,0 -2.1,0.2 -3.1,0.2zm7.1,-12.2c-0.1,-1 -0.3,-1.9 -0.8,-2.7c-0.4,-0.8 -0.9,-1.6 -1.5,-2.1c-0.6,-0.6 -1.3,-1 -2.1,-1.3s-1.7,-0.5 -2.6,-0.5s-1.8,0.2 -2.6,0.5s-1.5,0.8 -2.2,1.4c-0.6,0.6 -1.1,1.3 -1.5,2.1s-0.6,1.7 -0.7,2.7l14,0l0,-0.1z" />
        <path
           id="path64"
           d="m678.6,515.9c0,-1.5 0.3,-2.8 0.8,-4.1s1.2,-2.4 2.1,-3.4s2,-1.7 3.3,-2.3s2.7,-0.9 4.3,-0.9c2.1,0 3.8,0.5 5.3,1.4s2.6,2.1 3.4,3.6l-3.4,1.1c-0.5,-1 -1.3,-1.7 -2.2,-2.3c-1,-0.6 -2,-0.8 -3.2,-0.8c-1,0 -1.8,0.2 -2.7,0.6c-0.8,0.4 -1.6,0.9 -2.2,1.6s-1.1,1.5 -1.5,2.4c-0.3,0.9 -0.5,1.9 -0.5,3.1c0,1.1 0.2,2.1 0.6,3.1s0.9,1.8 1.5,2.5s1.4,1.2 2.2,1.6s1.7,0.6 2.7,0.6c0.6,0 1.2,-0.1 1.8,-0.2c0.6,-0.2 1.1,-0.4 1.6,-0.7s0.9,-0.6 1.3,-1s0.6,-0.8 0.8,-1.3l3.4,1c-0.3,0.8 -0.8,1.5 -1.3,2.1c-0.6,0.6 -1.2,1.2 -2,1.6s-1.6,0.8 -2.6,1.1c-0.9,0.3 -1.9,0.4 -2.9,0.4c-1.6,0 -3,-0.3 -4.3,-0.9s-2.4,-1.4 -3.3,-2.3s-1.7,-2.1 -2.2,-3.4c-0.6,-1.4 -0.8,-2.8 -0.8,-4.2z" />
        <path
           id="path66"
           d="m715.1,525.2c-0.2,0.1 -0.5,0.2 -0.8,0.4c-0.3,0.1 -0.7,0.3 -1.2,0.4c-0.4,0.1 -0.9,0.2 -1.4,0.3s-1,0.2 -1.6,0.2c-1.3,0 -2.4,-0.3 -3.3,-1s-1.4,-1.8 -1.4,-3.3l0,-13.9l-2.8,0l0,-2.7l2.8,0l0,-6.9l3.5,0l0,6.9l4.6,0l0,2.7l-4.6,0l0,12.8c0.1,0.8 0.3,1.3 0.8,1.7c0.4,0.3 1,0.5 1.6,0.5c0.7,0 1.3,-0.1 1.9,-0.3s1,-0.4 1.2,-0.6l0.7,2.8z" />
        <path
           id="path68"
           d="m720.8,526.3l0,-20.7l3.5,0l0,20.7l-3.5,0zm0,-24.6l0,-4.4l3.5,0l0,4.4l-3.5,0z" />
        <path
           id="path70"
           d="m741.5,526.7c-1.6,0 -3,-0.3 -4.3,-0.9s-2.4,-1.4 -3.3,-2.3c-0.9,-1 -1.6,-2.1 -2.1,-3.4s-0.8,-2.7 -0.8,-4.1c0,-1.5 0.3,-2.8 0.8,-4.1s1.2,-2.4 2.1,-3.4s2,-1.8 3.3,-2.3c1.3,-0.6 2.7,-0.9 4.2,-0.9s2.9,0.3 4.2,0.9s2.4,1.4 3.3,2.3c0.9,1 1.6,2.1 2.1,3.4s0.8,2.7 0.8,4.1s-0.3,2.8 -0.8,4.1s-1.2,2.4 -2.1,3.4s-2,1.8 -3.3,2.3c-1.2,0.6 -2.6,0.9 -4.1,0.9zm-6.9,-10.7c0,1.1 0.2,2.1 0.5,3c0.4,0.9 0.9,1.7 1.5,2.4s1.4,1.2 2.2,1.6s1.7,0.6 2.7,0.6s1.8,-0.2 2.7,-0.6c0.8,-0.4 1.6,-0.9 2.2,-1.6s1.1,-1.5 1.5,-2.5s0.6,-2 0.6,-3.1s-0.2,-2 -0.6,-3c-0.3,-1 -0.8,-1.8 -1.5,-2.5c-0.6,-0.7 -1.4,-1.3 -2.2,-1.7s-1.7,-0.6 -2.7,-0.6s-1.8,0.2 -2.7,0.6c-0.8,0.4 -1.5,1 -2.2,1.7c-0.6,0.7 -1.1,1.5 -1.5,2.5c-0.3,1.1 -0.5,2.1 -0.5,3.2z" />
        <path
           id="path72"
           d="m776.6,526.3l-3.5,0l0,-11.6c0,-2.2 -0.3,-3.8 -1,-4.8s-1.7,-1.5 -3.1,-1.5c-0.7,0 -1.4,0.1 -2.1,0.4s-1.4,0.6 -2,1.1s-1.2,1 -1.7,1.7s-0.8,1.4 -1.1,2.2l0,12.5l-3.5,0l0,-20.7l3.2,0l0,4.4c0.8,-1.5 2,-2.6 3.5,-3.5c1.6,-0.9 3.2,-1.3 5.1,-1.3c1.2,0 2.2,0.2 3,0.7c0.8,0.4 1.4,1 1.9,1.8s0.8,1.7 1,2.7c0.2,1.1 0.3,2.2 0.3,3.4l0,12.5z" />
        <path
           id="path74"
           d="m784.2,526.3l0,-4.4l2.9,0l0,4.4l-2.9,0z" />
      </g>
    </g>
  </g>
</svg>
