<?xml version="1.0" encoding="utf-8"?>
<!-- Generator: Adobe Illustrator 21.0.0, SVG Export Plug-In . SVG Version: 6.00 Build 0)  -->
<svg version="1.1"
	 id="svg5" viewport-fill="#e79d63" xmlns:cc="http://creativecommons.org/ns#" xmlns:dc="http://purl.org/dc/elements/1.1/" xmlns:rdf="http://www.w3.org/1999/02/22-rdf-syntax-ns#" xmlns:svg="http://www.w3.org/2000/svg"
	 xmlns="http://www.w3.org/2000/svg" xmlns:xlink="http://www.w3.org/1999/xlink" x="0px" y="0px" viewBox="0 0 1024 768"
	 enable-background="new 0 0 1024 768" xml:space="preserve">
<g id="logo-group">
	<g id="title">
		<path id="path13" fill="#EAE7D4" d="M293,312.9h-4.5v30.7c-2-3.5-4.6-6.3-7.9-8.3c-3.3-2-7.1-3-11.2-3c-4.4,0-8.4,1.1-11.9,3.1
			c-3.6,2-6.4,4.9-8.4,8.5s-3,7.7-3,12.3c0,4.7,1,8.7,3,12.3c2,3.6,4.8,6.5,8.4,8.5c3.5,2.1,7.5,3.1,11.9,3.1c4.2,0,8-1,11.4-3
			c3.3-2,5.9-4.8,7.8-8.5v11.1h4.4L293,312.9z M279.2,373.5c-2.9,1.7-6,2.5-9.6,2.5s-6.8-0.8-9.7-2.5c-2.9-1.6-5.1-4-6.8-7
			c-1.6-3-2.4-6.4-2.4-10.3c0-3.8,0.8-7.2,2.4-10.3c1.6-3,3.9-5.3,6.8-7c2.9-1.6,6.1-2.5,9.7-2.5s6.8,0.9,9.6,2.5
			c2.9,1.7,5.1,4,6.8,7c1.6,3.1,2.5,6.5,2.5,10.3c0,3.9-0.9,7.3-2.5,10.3C284.3,369.5,282.1,371.9,279.2,373.5z"/>
		<path id="path15" fill="#EAE7D4" d="M358.5,374.4c-2.6,1.1-5.5,1.6-8.5,1.6c-4.9,0-8.9-1.3-12.3-3.8c-3.4-2.5-5.8-5.9-6.8-10.3
			l39.7-7.7c-0.3-4.1-1.3-7.8-3.2-11.2c-2-3.3-4.6-5.9-7.8-7.8c-3.2-1.9-6.9-2.9-11-2.9c-4.4,0-8.4,1.1-11.8,3.1
			c-3.5,2.1-6.2,4.9-8.2,8.5c-2,3.6-2.9,7.7-2.9,12.3c0,4.7,1,8.7,3.1,12.3c2.1,3.6,4.9,6.5,8.6,8.5c3.7,2.1,7.8,3.1,12.6,3.1
			c3.6,0,6.9-0.6,10.1-1.9c3-1.3,5.6-3.1,7.6-5.8l-2.6-3C363.3,371.7,361.1,373.3,358.5,374.4L358.5,374.4z M339,338.8
			c2.8-1.6,5.9-2.5,9.5-2.5c3.1,0,5.9,0.7,8.5,2.1c2.5,1.4,4.5,3.2,6.1,5.5c1.5,2.3,2.5,5,3,7.7l-35.8,7c-0.2-1.2-0.2-2.1-0.2-2.8
			c0-3.7,0.7-7.1,2.3-10.1C333.9,342.8,336.1,340.4,339,338.8L339,338.8z"/>
		<path id="path17" fill="#B1AF9E" d="M440.2,332.7h-4.6l-18.9,42l-18.7-42h-4.8l21.2,47h4.6L440.2,332.7z"/>
		<path id="path19" fill="#B1AF9E" d="M495,374.4c-2.6,1.1-5.5,1.6-8.5,1.6c-4.9,0-8.9-1.3-12.3-3.8c-3.4-2.5-5.8-5.9-6.8-10.3
			l39.7-7.7c-0.3-4.1-1.3-7.8-3.2-11.2c-2-3.3-4.6-5.9-7.8-7.8c-3.2-1.9-6.9-2.9-11-2.9c-4.4,0-8.4,1.1-11.8,3.1
			c-3.5,2.1-6.2,4.9-8.2,8.5c-2,3.6-2.9,7.7-2.9,12.3c0,4.7,1,8.7,3.1,12.3c2.1,3.6,5,6.5,8.6,8.5c3.7,2.1,7.8,3.1,12.6,3.1
			c3.6,0,6.9-0.6,10.1-1.9c3-1.3,5.6-3.1,7.6-5.8l-2.6-3C499.7,371.7,497.6,373.3,495,374.4L495,374.4z M475.4,338.8
			c2.8-1.6,5.9-2.5,9.5-2.5c3.1,0,5.9,0.7,8.5,2.1s4.5,3.2,6.1,5.5c1.5,2.3,2.5,5,3,7.7l-35.8,7c-0.2-1.2-0.2-2.1-0.2-2.8
			c0-3.7,0.7-7.1,2.3-10.1C470.4,342.8,472.6,340.4,475.4,338.8z"/>
		<path id="path21" fill="#807E71" d="M539.8,312.9v66.8h4.5v-66.8H539.8z"/>
		<path id="path25" fill="#47463B" d="M692,335.4c-3.6-2-7.6-3.1-11.9-3.1c-4.2,0-8,1.1-11.4,3.1c-3.4,2-6,4.8-7.8,8.4v-11.1h-4.3
			v64.4h4.5V369c1.8,3.5,4.4,6.2,7.8,8.2c3.3,2,7.1,2.9,11.2,2.9c4.3,0,8.3-1,11.9-3c3.5-2,6.3-4.9,8.3-8.5c2-3.6,3.1-7.7,3.1-12.4
			c0-4.6-1.1-8.7-3.1-12.3C698.3,340.3,695.5,337.5,692,335.4z M689.6,373.5c-2.9,1.7-6.1,2.5-9.7,2.5s-6.8-0.8-9.7-2.5
			c-2.9-1.6-5.1-4-6.8-7c-1.6-3-2.4-6.4-2.4-10.3c0-3.8,0.8-7.2,2.4-10.3c1.6-3,3.9-5.3,6.8-7c2.9-1.6,6.1-2.5,9.7-2.5
			s6.8,0.9,9.7,2.5c2.9,1.7,5.1,4,6.8,7c1.6,3.1,2.5,6.5,2.5,10.3c0,3.9-0.9,7.3-2.5,10.3C694.7,369.5,692.5,371.9,689.6,373.5z"/>
		<path id="path27" fill="#47463B" d="M777.9,312.9h-4.5v30.7c-2-3.5-4.6-6.3-7.9-8.3c-3.3-2-7.1-3-11.2-3c-4.4,0-8.4,1.1-11.9,3.1
			c-3.6,2-6.4,4.9-8.4,8.5s-3,7.7-3,12.3c0,4.7,1,8.7,3,12.3c2,3.6,4.8,6.5,8.4,8.5c3.5,2.1,7.5,3.1,11.9,3.1c4.2,0,8-1,11.4-3
			c3.3-2,5.9-4.8,7.8-8.5v11.1h4.4V312.9z M764.1,373.5c-2.9,1.7-6,2.5-9.6,2.5c-3.6,0-6.8-0.8-9.7-2.5c-2.9-1.6-5.1-4-6.8-7
			c-1.6-3-2.4-6.4-2.4-10.3c0-3.8,0.8-7.2,2.4-10.3c1.6-3,3.9-5.3,6.8-7c2.9-1.6,6.1-2.5,9.7-2.5c3.6,0,6.8,0.9,9.6,2.5
			c2.9,1.7,5.1,4,6.8,7c1.6,3.1,2.5,6.5,2.5,10.3c0,3.9-0.9,7.3-2.5,10.3C769.3,369.5,767,371.9,764.1,373.5z"/>
		<path fill="#807E71" d="M603.4,368.8c-0.7-0.3-1.5-0.2-2.1,0.1c-0.4,0.2-0.7,0.4-0.9,0.7c-0.6-0.8-1.8-1.2-2.8-0.8
			c-1.3,0.5-2.2,2.2-3.4,2.7c2,1.4,3.6,3.2,7,2.9c2.4-0.2,3.5-1.9,5.3-2.8c-0.2-0.1-0.5-0.4-0.8-0.6
			C605.1,370.1,604.2,369.1,603.4,368.8z M600.4,327.9c-18.3,0-33.2,20.1-33.2,38.5c0,9.1,16.3,16.5,32.8,16.6
			c16.8,0.1,33.7-7.4,33.7-16.6C633.7,348,618.8,327.9,600.4,327.9z M600.4,381.6c-11.3,0-20.4-12.4-20.4-23.6
			c0-5.7,10.4-10.3,20.7-10.2c10.1,0,20.1,4.6,20.1,10.2C620.9,369.2,611.7,381.6,600.4,381.6z"/>
	</g>
	<g id="tagline">
		<path id="path30" fill="#EAE7D4" d="M236.8,446.3v-28.1h11.7c1.2,0,2.4,0.3,3.4,0.8c1.1,0.5,2,1.2,2.7,2.1
			c0.8,0.8,1.4,1.8,1.8,2.9c0.4,1.1,0.6,2.1,0.6,3.2c0,1.2-0.2,2.3-0.6,3.4c-0.4,1.1-1,2-1.7,2.9c-0.7,0.8-1.6,1.5-2.6,2
			c-1,0.5-2.1,0.8-3.4,0.8h-8.4v10.1H236.8z M240.4,433h8.2c0.7,0,1.4-0.1,2-0.4c0.6-0.3,1.1-0.7,1.5-1.3c0.4-0.6,0.8-1.2,1-1.9
			c0.2-0.7,0.4-1.5,0.4-2.3c0-0.8-0.1-1.6-0.4-2.3c-0.3-0.7-0.6-1.3-1.1-1.9c-0.4-0.5-1-0.9-1.6-1.2c-0.6-0.3-1.3-0.4-1.9-0.4h-8
			L240.4,433z"/>
		<path id="path32" fill="#EAE7D4" d="M274.4,428.6c-1.7,0.1-3.3,0.5-4.6,1.3c-1.3,0.8-2.3,2-2.8,3.5v12.8h-3.5v-20.7h3.2v4.8
			c0.7-1.4,1.7-2.6,2.8-3.4c1.2-0.9,2.4-1.4,3.7-1.5c0.3,0,0.5,0,0.7,0c0.2,0,0.3,0,0.5,0V428.6z"/>
		<path id="path34" fill="#EAE7D4" d="M288.9,446.7c-1.6,0-3-0.3-4.3-0.9c-1.3-0.6-2.4-1.4-3.3-2.3c-0.9-1-1.6-2.1-2.1-3.4
			c-0.5-1.3-0.8-2.7-0.8-4.1c0-1.5,0.3-2.8,0.8-4.1c0.5-1.3,1.2-2.4,2.1-3.4c0.9-1,2-1.8,3.3-2.3c1.3-0.6,2.7-0.9,4.2-0.9
			c1.5,0,2.9,0.3,4.2,0.9c1.3,0.6,2.4,1.4,3.3,2.3c0.9,1,1.6,2.1,2.1,3.4c0.5,1.3,0.8,2.7,0.8,4.1c0,1.4-0.3,2.8-0.8,4.1
			c-0.5,1.3-1.2,2.4-2.1,3.4c-0.9,1-2,1.8-3.3,2.3C291.8,446.4,290.4,446.7,288.9,446.7L288.9,446.7z M282,436c0,1.1,0.2,2.1,0.5,3
			c0.4,0.9,0.9,1.7,1.5,2.4c0.6,0.7,1.4,1.2,2.2,1.6c0.8,0.4,1.7,0.6,2.7,0.6s1.8-0.2,2.7-0.6c0.8-0.4,1.6-0.9,2.2-1.6
			c0.6-0.7,1.1-1.5,1.5-2.5c0.4-1,0.6-2,0.6-3.1c0-1.1-0.2-2-0.6-3c-0.3-1-0.8-1.8-1.5-2.5c-0.6-0.7-1.4-1.3-2.2-1.7
			c-0.8-0.4-1.7-0.6-2.7-0.6c-1,0-1.8,0.2-2.7,0.6c-0.8,0.4-1.5,1-2.2,1.7c-0.6,0.7-1.1,1.5-1.5,2.5C282.2,433.9,282,434.9,282,436
			L282,436z"/>
		<path id="path36" fill="#EAE7D4" d="M314.3,446.5c-1.4,0-2.7-0.3-3.9-0.9c-1.2-0.6-2.2-1.4-3-2.3c-0.8-1-1.5-2.1-2-3.4
			c-0.4-1.3-0.7-2.6-0.7-4c0-1.5,0.2-2.8,0.7-4.1c0.5-1.3,1.1-2.5,2-3.4c0.8-1,1.8-1.7,3-2.3c1.2-0.6,2.5-0.9,3.9-0.9
			c1.7,0,3.2,0.4,4.5,1.3s2.3,1.9,3.2,3.2v-4.1h3.1V446c0,1.5-0.3,2.8-0.8,3.9c-0.6,1.1-1.3,2.1-2.3,2.9c-1,0.8-2.1,1.3-3.4,1.7
			c-1.3,0.4-2.6,0.6-4.1,0.6c-2.4,0-4.3-0.4-5.7-1.2c-1.5-0.8-2.7-1.9-3.6-3.3l2-1.8c0.8,1.2,1.9,2.1,3.2,2.7
			c1.3,0.6,2.7,0.9,4.2,0.9c1,0,1.8-0.1,2.7-0.4c0.9-0.3,1.6-0.7,2.3-1.2c0.6-0.5,1.1-1.2,1.5-2c0.4-0.8,0.6-1.7,0.6-2.8v-3.6
			c-0.4,0.6-0.9,1.2-1.4,1.7c-0.5,0.5-1.1,0.9-1.7,1.3c-0.6,0.3-1.3,0.6-2,0.8C315.8,446.4,315.1,446.5,314.3,446.5L314.3,446.5z
			 M315.4,443.6c0.7,0,1.5-0.1,2.1-0.4c0.7-0.3,1.3-0.6,1.9-1c0.6-0.4,1.1-1,1.5-1.5c0.4-0.6,0.7-1.1,0.8-1.7v-5.9
			c-0.3-0.7-0.7-1.4-1.1-1.9c-0.4-0.6-1-1.1-1.5-1.5c-0.6-0.4-1.2-0.8-1.9-1c-0.7-0.2-1.3-0.4-2-0.4c-1.1,0-2,0.2-2.9,0.7
			c-0.8,0.4-1.5,1-2.1,1.8c-0.6,0.7-1,1.6-1.3,2.5c-0.3,0.9-0.5,1.9-0.5,2.8c0,1,0.2,2,0.6,2.9c0.4,0.9,0.9,1.7,1.5,2.4
			c0.6,0.7,1.4,1.2,2.2,1.7C313.4,443.4,314.4,443.6,315.4,443.6L315.4,443.6z"/>
		<path id="path38" fill="#EAE7D4" d="M344.2,428.6c-1.7,0.1-3.3,0.5-4.6,1.3c-1.3,0.8-2.3,2-2.8,3.5v12.8h-3.5v-20.7h3.2v4.8
			c0.7-1.4,1.7-2.6,2.8-3.4c1.2-0.9,2.4-1.4,3.7-1.5c0.3,0,0.5,0,0.7,0c0.2,0,0.3,0,0.5,0V428.6z"/>
		<path id="path40" fill="#EAE7D4" d="M355.4,446.7c-1,0-1.9-0.2-2.7-0.5c-0.8-0.3-1.6-0.8-2.2-1.4c-0.6-0.6-1.1-1.3-1.5-2
			c-0.3-0.8-0.5-1.7-0.5-2.6c0-1,0.2-1.8,0.6-2.6c0.4-0.8,1-1.5,1.8-2c0.8-0.6,1.7-1,2.8-1.3c1.1-0.3,2.3-0.5,3.5-0.5
			c1,0,2,0.1,3.1,0.3c1,0.2,1.9,0.4,2.7,0.8v-1.7c0-1.7-0.5-3-1.4-4c-1-1-2.3-1.5-4-1.5c-2.1,0-4.3,0.8-6.6,2.4l-1.1-2.3
			c2.7-1.8,5.3-2.7,8-2.7c2.7,0,4.8,0.7,6.3,2.2c1.5,1.5,2.3,3.5,2.3,6.1v8.4c0,0.8,0.4,1.2,1.1,1.3v3c-0.4,0.1-0.7,0.1-0.9,0.1
			s-0.5,0-0.8,0c-0.7,0-1.2-0.2-1.7-0.6c-0.4-0.4-0.6-0.9-0.7-1.5l-0.1-1.5c-0.9,1.2-2.1,2.2-3.5,2.9
			C358.5,446.3,357,446.7,355.4,446.7L355.4,446.7z M356.3,444c1.2,0,2.4-0.2,3.4-0.7c1.1-0.5,1.9-1.1,2.5-1.9
			c0.5-0.5,0.8-1,0.8-1.5v-3.1c-1.7-0.7-3.4-1-5.3-1c-1.7,0-3.2,0.4-4.3,1.1c-1.1,0.7-1.6,1.7-1.6,2.9c0,0.6,0.1,1.1,0.3,1.6
			c0.2,0.5,0.6,0.9,1,1.3c0.4,0.4,0.9,0.7,1.5,0.9C355.1,443.9,355.7,444,356.3,444L356.3,444z"/>
		<path id="path42" fill="#EAE7D4" d="M405.7,446.3h-3.5v-11.6c0-2.2-0.4-3.8-1.1-4.8c-0.7-1-1.7-1.5-3.1-1.5
			c-1.4,0-2.7,0.5-3.8,1.5c-1.1,1-1.9,2.3-2.4,3.9v12.4h-3.5v-11.6c0-2.2-0.3-3.8-1-4.8c-0.7-1-1.7-1.5-3.1-1.5
			c-1.4,0-2.7,0.5-3.8,1.5c-1.1,1-1.9,2.3-2.4,3.9v12.5h-3.5v-20.7h3.2v4.4c0.8-1.5,1.9-2.7,3.3-3.5c1.3-0.8,2.9-1.3,4.6-1.3
			c1.7,0,3.1,0.5,4.1,1.4c1,0.9,1.7,2.1,1.9,3.6c1.8-3.4,4.5-5,7.9-5c1.2,0,2.2,0.2,3,0.7c0.8,0.4,1.5,1,1.9,1.8
			c0.5,0.8,0.8,1.7,1,2.7s0.3,2.2,0.3,3.4L405.7,446.3z"/>
		<path id="path44" fill="#EAE7D4" d="M444.8,446.3h-3.5v-11.6c0-2.2-0.4-3.8-1.1-4.8c-0.7-1-1.7-1.5-3.1-1.5
			c-1.4,0-2.7,0.5-3.8,1.5c-1.1,1-1.9,2.3-2.4,3.9v12.4h-3.5v-11.6c0-2.2-0.3-3.8-1-4.8c-0.7-1-1.7-1.5-3.1-1.5
			c-1.4,0-2.7,0.5-3.8,1.5c-1.1,1-1.9,2.3-2.4,3.9v12.5h-3.5v-20.7h3.2v4.4c0.8-1.5,1.9-2.7,3.3-3.5c1.3-0.8,2.9-1.3,4.6-1.3
			c1.7,0,3.1,0.5,4.1,1.4c1,0.9,1.7,2.1,1.9,3.6c1.8-3.4,4.5-5,7.9-5c1.2,0,2.2,0.2,3,0.7c0.8,0.4,1.5,1,1.9,1.8
			c0.5,0.8,0.8,1.7,1,2.7c0.2,1.1,0.3,2.2,0.3,3.4L444.8,446.3z"/>
		<path id="path46" fill="#EAE7D4" d="M461.9,446.7c-1.6,0-3-0.3-4.3-0.8c-1.3-0.6-2.4-1.4-3.3-2.3c-0.9-1-1.7-2.1-2.2-3.4
			c-0.5-1.3-0.8-2.7-0.8-4.2c0-1.5,0.3-2.8,0.8-4.1c0.5-1.3,1.3-2.4,2.2-3.4c1-1,2.1-1.7,3.4-2.3c1.3-0.6,2.7-0.9,4.3-0.9
			s3,0.3,4.2,0.9c1.3,0.6,2.4,1.4,3.3,2.3c0.9,1,1.6,2.1,2.1,3.4c0.5,1.3,0.8,2.6,0.8,4c0,0.3,0,0.6,0,0.8c0,0.2,0,0.4,0,0.6H455
			c0.1,1,0.3,2,0.7,2.8c0.4,0.8,0.9,1.6,1.5,2.2c0.6,0.6,1.3,1.1,2.1,1.4c0.8,0.3,1.7,0.5,2.6,0.5c0.6,0,1.3-0.1,1.9-0.2
			c0.6-0.2,1.2-0.4,1.7-0.7c0.5-0.3,1-0.6,1.4-1.1c0.4-0.4,0.7-0.9,1-1.4l3,0.8c-0.3,0.8-0.8,1.5-1.4,2.1c-0.6,0.6-1.3,1.2-2.1,1.7
			c-0.8,0.4-1.6,0.8-2.6,1.1C463.9,446.5,462.9,446.7,461.9,446.7L461.9,446.7z M469,434.5c-0.1-1-0.3-1.9-0.8-2.7
			c-0.4-0.8-0.9-1.6-1.5-2.1c-0.6-0.6-1.3-1-2.1-1.3c-0.8-0.3-1.7-0.5-2.6-0.5c-0.9,0-1.8,0.2-2.6,0.5c-0.8,0.3-1.5,0.8-2.2,1.4
			c-0.6,0.6-1.1,1.3-1.5,2.1c-0.4,0.8-0.6,1.7-0.7,2.7H469z"/>
		<path id="path48" fill="#EAE7D4" d="M487.1,446.7c-1.4,0-2.7-0.3-4-0.9c-1.2-0.6-2.3-1.4-3.1-2.3c-0.9-1-1.6-2.1-2.1-3.4
			c-0.5-1.3-0.7-2.7-0.7-4.1c0-1.5,0.2-2.8,0.7-4.1c0.5-1.3,1.1-2.5,1.9-3.4c0.8-1,1.8-1.7,3-2.3c1.2-0.6,2.4-0.9,3.8-0.9
			c1.7,0,3.1,0.4,4.4,1.3c1.3,0.9,2.4,1.9,3.1,3.2v-12.4h3.5V442c0,0.8,0.4,1.2,1.1,1.3v3c-0.4,0.1-0.7,0.1-0.9,0.1
			c-0.2,0-0.4,0-0.6,0c-0.7,0-1.3-0.2-1.8-0.7c-0.5-0.5-0.8-1-0.8-1.6v-1.7c-0.8,1.3-1.9,2.4-3.3,3.2
			C490.1,446.3,488.7,446.7,487.1,446.7L487.1,446.7z M488,443.6c0.6,0,1.3-0.1,1.9-0.4c0.7-0.2,1.3-0.6,1.9-1
			c0.6-0.4,1.1-0.9,1.5-1.5c0.4-0.6,0.7-1.2,0.9-1.8v-5.9c-0.2-0.7-0.6-1.3-1.1-1.9c-0.5-0.6-1-1.1-1.6-1.5c-0.6-0.4-1.2-0.8-1.9-1
			c-0.7-0.3-1.3-0.4-2-0.4c-1,0-2,0.2-2.8,0.7c-0.8,0.4-1.5,1-2.1,1.7c-0.6,0.7-1,1.5-1.3,2.5c-0.3,0.9-0.5,1.9-0.5,2.9
			c0,1,0.2,2,0.6,3c0.4,0.9,0.9,1.7,1.5,2.4c0.6,0.7,1.4,1.2,2.2,1.7C486,443.4,487,443.6,488,443.6L488,443.6z"/>
		<path id="path50" fill="#EAE7D4" d="M526.8,445.2c-0.2,0.1-0.5,0.2-0.8,0.4c-0.3,0.1-0.7,0.3-1.2,0.4c-0.4,0.1-0.9,0.2-1.4,0.3
			c-0.5,0.1-1,0.2-1.6,0.2c-1.3,0-2.4-0.3-3.3-1c-0.9-0.7-1.4-1.8-1.4-3.3v-13.9h-2.8v-2.7h2.8v-6.9h3.5v6.9h4.6v2.7h-4.6v12.8
			c0.1,0.8,0.3,1.3,0.8,1.7s1,0.5,1.6,0.5c0.7,0,1.3-0.1,1.9-0.3c0.6-0.2,1-0.4,1.2-0.6L526.8,445.2z"/>
		<path id="path52" fill="#EAE7D4" d="M541.2,446.7c-1.6,0-3-0.3-4.3-0.9c-1.3-0.6-2.4-1.4-3.3-2.3c-0.9-1-1.6-2.1-2.1-3.4
			c-0.5-1.3-0.8-2.7-0.8-4.1c0-1.5,0.3-2.8,0.8-4.1c0.5-1.3,1.2-2.4,2.1-3.4c0.9-1,2-1.8,3.3-2.3c1.3-0.6,2.7-0.9,4.2-0.9
			c1.5,0,2.9,0.3,4.2,0.9c1.3,0.6,2.4,1.4,3.3,2.3c0.9,1,1.6,2.1,2.1,3.4c0.5,1.3,0.8,2.7,0.8,4.1c0,1.4-0.3,2.8-0.8,4.1
			c-0.5,1.3-1.2,2.4-2.1,3.4c-0.9,1-2,1.8-3.3,2.3C544.2,446.4,542.8,446.7,541.2,446.7L541.2,446.7z M534.4,436
			c0,1.1,0.2,2.1,0.5,3c0.4,0.9,0.9,1.7,1.5,2.4c0.6,0.7,1.4,1.2,2.2,1.6c0.8,0.4,1.7,0.6,2.7,0.6s1.8-0.2,2.7-0.6
			c0.8-0.4,1.6-0.9,2.2-1.6c0.6-0.7,1.1-1.5,1.5-2.5c0.4-1,0.6-2,0.6-3.1c0-1.1-0.2-2-0.6-3c-0.3-1-0.8-1.8-1.5-2.5
			c-0.6-0.7-1.4-1.3-2.2-1.7c-0.8-0.4-1.7-0.6-2.7-0.6c-1,0-1.8,0.2-2.7,0.6c-0.8,0.4-1.5,1-2.2,1.7c-0.6,0.7-1.1,1.5-1.5,2.5
			C534.5,433.9,534.4,434.9,534.4,436L534.4,436z"/>
		<path id="path54" fill="#EAE7D4" d="M579.6,446.7c-1.7,0-3.2-0.4-4.6-1.3c-1.3-0.8-2.3-1.9-3.1-3.2v12.5h-3.5v-29.1h3.1v3.9
			c0.8-1.3,1.9-2.3,3.2-3.1c1.3-0.8,2.8-1.2,4.4-1.2c1.4,0,2.7,0.3,3.9,0.9c1.2,0.6,2.2,1.4,3.1,2.4c0.9,1,1.5,2.1,2,3.4
			c0.5,1.3,0.8,2.6,0.8,4c0,1.5-0.2,2.9-0.7,4.2c-0.4,1.3-1.1,2.4-1.9,3.4c-0.8,1-1.8,1.7-2.9,2.3
			C582.2,446.4,581,446.7,579.6,446.7L579.6,446.7z M578.5,443.6c1,0,2-0.2,2.8-0.6c0.8-0.4,1.6-1,2.1-1.7c0.6-0.7,1.1-1.6,1.4-2.5
			c0.3-0.9,0.5-1.9,0.5-2.9c0-1-0.2-2-0.6-2.9c-0.4-1-0.9-1.8-1.5-2.5c-0.6-0.7-1.4-1.3-2.3-1.7c-0.8-0.4-1.8-0.6-2.8-0.6
			c-0.6,0-1.3,0.1-2,0.4c-0.7,0.2-1.3,0.6-1.9,1c-0.6,0.4-1.1,0.9-1.5,1.5c-0.4,0.6-0.7,1.1-0.8,1.8v5.9c0.3,0.7,0.7,1.3,1.1,1.9
			c0.4,0.6,1,1.1,1.5,1.5c0.6,0.4,1.2,0.8,1.9,1C577.1,443.5,577.8,443.6,578.5,443.6L578.5,443.6z"/>
		<path id="path56" fill="#EAE7D4" d="M604.8,446.7c-1.6,0-3-0.3-4.3-0.8c-1.3-0.6-2.4-1.4-3.3-2.3c-0.9-1-1.7-2.1-2.2-3.4
			c-0.5-1.3-0.8-2.7-0.8-4.2c0-1.5,0.3-2.8,0.8-4.1c0.5-1.3,1.3-2.4,2.2-3.4c1-1,2.1-1.7,3.4-2.3c1.3-0.6,2.7-0.9,4.3-0.9
			s3,0.3,4.2,0.9c1.3,0.6,2.4,1.4,3.3,2.3c0.9,1,1.6,2.1,2.1,3.4c0.5,1.3,0.8,2.6,0.8,4c0,0.3,0,0.6,0,0.8c0,0.2,0,0.4,0,0.6h-17.2
			c0.1,1,0.3,2,0.7,2.8c0.4,0.8,0.9,1.6,1.5,2.2c0.6,0.6,1.3,1.1,2.1,1.4c0.8,0.3,1.7,0.5,2.6,0.5c0.6,0,1.3-0.1,1.9-0.2
			c0.6-0.2,1.2-0.4,1.7-0.7c0.5-0.3,1-0.6,1.4-1.1c0.4-0.4,0.7-0.9,1-1.4l3,0.8c-0.3,0.8-0.8,1.5-1.4,2.1c-0.6,0.6-1.3,1.2-2.1,1.7
			c-0.8,0.4-1.6,0.8-2.6,1.1C606.8,446.5,605.8,446.7,604.8,446.7L604.8,446.7z M611.9,434.5c-0.1-1-0.3-1.9-0.8-2.7
			c-0.4-0.8-0.9-1.6-1.5-2.1c-0.6-0.6-1.3-1-2.1-1.3c-0.8-0.3-1.7-0.5-2.6-0.5c-0.9,0-1.8,0.2-2.6,0.5c-0.8,0.3-1.5,0.8-2.2,1.4
			c-0.6,0.6-1.1,1.3-1.5,2.1c-0.4,0.8-0.6,1.7-0.7,2.7H611.9z"/>
		<path id="path58" fill="#EAE7D4" d="M632.5,428.6c-1.7,0.1-3.3,0.5-4.6,1.3c-1.3,0.8-2.3,2-2.8,3.5v12.8h-3.5v-20.7h3.2v4.8
			c0.7-1.4,1.7-2.6,2.8-3.4c1.2-0.9,2.4-1.4,3.7-1.5c0.3,0,0.5,0,0.7,0c0.2,0,0.3,0,0.5,0V428.6z"/>
		<path id="path60" fill="#EAE7D4" d="M639.5,446.3v-17.9h-2.8v-2.7h2.8v-0.4c0-2.6,0.6-4.6,1.7-6c1.1-1.5,2.7-2.2,4.6-2.2
			c0.8,0,1.6,0.1,2.4,0.4c0.8,0.2,1.5,0.5,2.1,0.9l-0.9,2.6c-0.4-0.3-0.8-0.5-1.4-0.6c-0.5-0.2-1.1-0.2-1.6-0.2
			c-1.2,0-2,0.4-2.7,1.3c-0.6,0.9-0.9,2.1-0.9,3.8v0.6h5.5v2.7H643v17.9H639.5z"/>
		<path id="path62" fill="#EAE7D4" d="M663.2,446.7c-1.6,0-3-0.3-4.3-0.8c-1.3-0.6-2.4-1.4-3.3-2.3c-0.9-1-1.7-2.1-2.2-3.4
			c-0.5-1.3-0.8-2.7-0.8-4.2c0-1.5,0.3-2.8,0.8-4.1c0.5-1.3,1.3-2.4,2.2-3.4c1-1,2.1-1.7,3.4-2.3c1.3-0.6,2.7-0.9,4.3-0.9
			c1.6,0,3,0.3,4.2,0.9c1.3,0.6,2.4,1.4,3.3,2.3c0.9,1,1.6,2.1,2.1,3.4c0.5,1.3,0.8,2.6,0.8,4c0,0.3,0,0.6,0,0.8c0,0.2,0,0.4,0,0.6
			h-17.2c0.1,1,0.3,2,0.7,2.8c0.4,0.8,0.9,1.6,1.5,2.2c0.6,0.6,1.3,1.1,2.1,1.4c0.8,0.3,1.7,0.5,2.6,0.5c0.6,0,1.3-0.1,1.9-0.2
			c0.6-0.2,1.2-0.4,1.7-0.7c0.5-0.3,1-0.6,1.4-1.1c0.4-0.4,0.7-0.9,1-1.4l3,0.8c-0.3,0.8-0.8,1.5-1.4,2.1c-0.6,0.6-1.3,1.2-2.1,1.7
			c-0.8,0.4-1.6,0.8-2.6,1.1C665.2,446.5,664.2,446.7,663.2,446.7L663.2,446.7z M670.3,434.5c-0.1-1-0.3-1.9-0.8-2.7
			c-0.4-0.8-0.9-1.6-1.5-2.1c-0.6-0.6-1.3-1-2.1-1.3c-0.8-0.3-1.7-0.5-2.6-0.5c-0.9,0-1.8,0.2-2.6,0.5c-0.8,0.3-1.5,0.8-2.2,1.4
			c-0.6,0.6-1.1,1.3-1.5,2.1c-0.4,0.8-0.6,1.7-0.7,2.7H670.3z"/>
		<path id="path64" fill="#EAE7D4" d="M678.6,435.9c0-1.5,0.3-2.8,0.8-4.1c0.5-1.3,1.2-2.4,2.1-3.4c0.9-1,2-1.7,3.3-2.3
			c1.3-0.6,2.7-0.9,4.3-0.9c2.1,0,3.8,0.5,5.3,1.4c1.5,0.9,2.6,2.1,3.4,3.6l-3.4,1.1c-0.5-1-1.3-1.7-2.2-2.3c-1-0.6-2-0.8-3.2-0.8
			c-1,0-1.8,0.2-2.7,0.6c-0.8,0.4-1.6,0.9-2.2,1.6s-1.1,1.5-1.5,2.4c-0.3,0.9-0.5,1.9-0.5,3.1c0,1.1,0.2,2.1,0.6,3.1
			c0.4,1,0.9,1.8,1.5,2.5c0.6,0.7,1.4,1.2,2.2,1.6c0.8,0.4,1.7,0.6,2.7,0.6c0.6,0,1.2-0.1,1.8-0.2c0.6-0.2,1.1-0.4,1.6-0.7
			c0.5-0.3,0.9-0.6,1.3-1c0.4-0.4,0.6-0.8,0.8-1.3l3.4,1c-0.3,0.8-0.8,1.5-1.3,2.1c-0.6,0.6-1.2,1.2-2,1.6s-1.6,0.8-2.6,1.1
			c-0.9,0.3-1.9,0.4-2.9,0.4c-1.6,0-3-0.3-4.3-0.9c-1.3-0.6-2.4-1.4-3.3-2.3s-1.7-2.1-2.2-3.4C678.8,438.7,678.6,437.3,678.6,435.9
			L678.6,435.9z"/>
		<path id="path66" fill="#EAE7D4" d="M715.1,445.2c-0.2,0.1-0.5,0.2-0.8,0.4c-0.3,0.1-0.7,0.3-1.2,0.4c-0.4,0.1-0.9,0.2-1.4,0.3
			c-0.5,0.1-1,0.2-1.6,0.2c-1.3,0-2.4-0.3-3.3-1c-0.9-0.7-1.4-1.8-1.4-3.3v-13.9h-2.8v-2.7h2.8v-6.9h3.5v6.9h4.6v2.7h-4.6v12.8
			c0.1,0.8,0.3,1.3,0.8,1.7c0.4,0.3,1,0.5,1.6,0.5c0.7,0,1.3-0.1,1.9-0.3c0.6-0.2,1-0.4,1.2-0.6L715.1,445.2z"/>
		<path id="path68" fill="#EAE7D4" d="M720.8,446.3v-20.7h3.5v20.7H720.8z M720.8,421.7v-4.4h3.5v4.4H720.8z"/>
		<path id="path70" fill="#EAE7D4" d="M741.5,446.7c-1.6,0-3-0.3-4.3-0.9c-1.3-0.6-2.4-1.4-3.3-2.3c-0.9-1-1.6-2.1-2.1-3.4
			c-0.5-1.3-0.8-2.7-0.8-4.1c0-1.5,0.3-2.8,0.8-4.1c0.5-1.3,1.2-2.4,2.1-3.4c0.9-1,2-1.8,3.3-2.3c1.3-0.6,2.7-0.9,4.2-0.9
			c1.5,0,2.9,0.3,4.2,0.9c1.3,0.6,2.4,1.4,3.3,2.3c0.9,1,1.6,2.1,2.1,3.4c0.5,1.3,0.8,2.7,0.8,4.1c0,1.4-0.3,2.8-0.8,4.1
			c-0.5,1.3-1.2,2.4-2.1,3.4c-0.9,1-2,1.8-3.3,2.3C744.4,446.4,743,446.7,741.5,446.7L741.5,446.7z M734.6,436c0,1.1,0.2,2.1,0.5,3
			c0.4,0.9,0.9,1.7,1.5,2.4c0.6,0.7,1.4,1.2,2.2,1.6c0.8,0.4,1.7,0.6,2.7,0.6s1.8-0.2,2.7-0.6c0.8-0.4,1.6-0.9,2.2-1.6
			c0.6-0.7,1.1-1.5,1.5-2.5c0.4-1,0.6-2,0.6-3.1c0-1.1-0.2-2-0.6-3c-0.3-1-0.8-1.8-1.5-2.5c-0.6-0.7-1.4-1.3-2.2-1.7
			c-0.8-0.4-1.7-0.6-2.7-0.6c-1,0-1.8,0.2-2.7,0.6c-0.8,0.4-1.5,1-2.2,1.7c-0.6,0.7-1.1,1.5-1.5,2.5
			C734.8,433.9,734.6,434.9,734.6,436L734.6,436z"/>
		<path id="path72" fill="#EAE7D4" d="M776.6,446.3h-3.5v-11.6c0-2.2-0.3-3.8-1-4.8c-0.7-1-1.7-1.5-3.1-1.5c-0.7,0-1.4,0.1-2.1,0.4
			c-0.7,0.3-1.4,0.6-2,1.1c-0.6,0.5-1.2,1-1.7,1.7c-0.5,0.7-0.8,1.4-1.1,2.2v12.5h-3.5v-20.7h3.2v4.4c0.8-1.5,2-2.6,3.5-3.5
			c1.6-0.9,3.2-1.3,5.1-1.3c1.2,0,2.2,0.2,3,0.7c0.8,0.4,1.4,1,1.9,1.8c0.5,0.8,0.8,1.7,1,2.7c0.2,1.1,0.3,2.2,0.3,3.4L776.6,446.3z
			"/>
		<path id="path74" fill="#EAE7D4" d="M784.2,446.3v-4.4h2.9v4.4H784.2z"/>
	</g>
</g>
</svg>
